<svg width="142" height="143" viewBox="0 0 142 143" fill="none" xmlns="http://www.w3.org/2000/svg">
<path d="M141.536 0.847656H0V142.384H141.536V0.847656Z" fill="black"/>
<path d="M53.0109 32.8848C64.8137 32.8848 76.6165 32.8848 88.4194 32.8848C89.2069 32.998 89.9996 33.1267 90.7871 33.2296C99.7744 34.3878 106.898 40.8992 108.787 49.732C109.096 51.1835 109.261 52.666 109.493 54.133V89.1966C109.379 89.9893 109.261 90.7768 109.158 91.5695C107.655 103.079 98.9251 109.956 88.3113 110.208C76.946 110.476 65.5755 110.296 54.205 110.28C52.8307 110.28 51.4409 110.146 50.0872 109.904C43.6942 108.772 38.6395 105.581 35.232 99.9803C32.8179 96.0014 32.0303 91.6055 32.0406 87.009C32.0612 76.704 32.0303 66.3991 32.0664 56.0941C32.0715 54.3183 32.2156 52.527 32.473 50.7717C33.765 42.0573 40.1322 35.3658 48.7746 33.5848C50.1747 33.2966 51.5953 33.1215 53.0109 32.8951V32.8848ZM70.7486 103.027C70.7486 103.053 70.7486 103.084 70.7486 103.11C75.8136 103.11 80.8785 103.125 85.9486 103.1C87.2973 103.089 88.6613 103.043 89.9893 102.832C95.2808 101.983 99.1824 99.2339 101.319 94.2255C102.271 91.9967 102.559 89.6341 102.564 87.2303C102.564 76.9254 102.575 66.6204 102.554 56.3154C102.554 54.9668 102.477 53.6028 102.235 52.2799C101.401 47.7914 99.2391 44.1677 95.0903 41.9595C92.6814 40.6778 90.0665 40.1477 87.359 40.1425C76.9666 40.1219 66.5741 40.1271 56.1868 40.1425C54.8382 40.1425 53.4741 40.1579 52.141 40.3227C46.4995 41.0227 42.3456 43.7611 40.2867 49.2378C39.4785 51.3946 39.2469 53.6491 39.2469 55.9345C39.2417 66.327 39.2366 76.7195 39.2572 87.1068C39.2572 88.337 39.3498 89.5826 39.5249 90.8026C40.6264 98.5339 46.0568 102.657 53.0572 102.976C58.9457 103.249 64.8549 103.033 70.7537 103.033L70.7486 103.027Z" fill="white"/>
<path d="M90.7009 71.4991C90.6752 82.6019 81.7034 91.4656 70.5336 91.4296C59.5338 91.3935 50.7421 82.432 50.773 71.2932C50.8039 60.4117 59.7912 51.5017 70.7395 51.5068C81.7085 51.5068 90.7266 60.5404 90.7009 71.4991ZM83.5101 71.391C83.4226 64.3494 77.6781 58.6565 70.7087 58.6977C63.5744 58.7388 57.9175 64.5244 57.9947 71.7153C58.0668 78.7053 63.9193 84.3159 71.0329 84.213C77.9098 84.1152 83.5976 78.273 83.5152 71.391H83.5101Z" fill="white"/>
<path d="M91.52 46.5235C94.0422 46.5338 96.029 48.5567 96.0084 51.0943C95.9878 53.565 93.9752 55.5519 91.4839 55.5519C88.9669 55.5519 86.9182 53.5136 86.9337 51.0171C86.9491 48.5001 88.9772 46.5132 91.52 46.5235Z" fill="white"/>
</svg>
