<svg width="140" height="142" viewBox="0 0 140 142" fill="none" xmlns="http://www.w3.org/2000/svg">
<g clip-path="url(#clip0_3_970)">
<path d="M140 0H0V142H140V0Z" fill="black"/>
<path d="M111.832 76.1022V82.2244C111.581 83.84 111.329 85.5406 110.994 87.1561C110.156 90.8124 108.563 94.0435 105.629 96.4244C100.766 100.251 93.1376 99.9956 88.1077 95.9142C85.1736 93.5334 82.9939 90.6423 80.9819 87.4112C77.461 81.7142 74.0239 75.9322 70.5867 70.1501C70.4191 69.895 70.2514 69.64 70.0837 69.3849C69.9161 69.725 69.7484 69.9801 69.5807 70.1501C67.7364 73.3813 65.976 76.6124 64.1316 79.8436C61.5328 84.3501 58.934 88.8567 55.5807 92.7681C52.1436 96.8495 47.952 99.4004 42.4191 98.9753C38.2275 98.7202 34.7065 97.1046 32.1915 93.7034C29.4251 90.1322 28.5029 85.8807 28.2514 81.4591C27.9999 75.1669 28.8382 69.1298 30.8502 63.1777C32.8622 57.2256 35.7963 51.7837 40.4909 47.5322C46.6107 42.0052 54.5748 41.1549 61.5328 45.3214C64.8861 47.3621 67.5688 50.2531 70.0837 53.2292C70.4191 53.6543 70.7544 54.0795 71.0897 54.5046C71.3412 54.1645 71.5927 53.9094 71.7604 53.6543C73.7724 51.0184 75.8682 48.5525 78.467 46.4268C82.7424 43.0256 87.437 41.7501 92.7185 43.3657C96.7424 44.6412 99.9281 47.1921 102.527 50.4232C107.557 56.6304 110.072 63.9429 111.162 71.7657C111.329 73.1262 111.497 74.5717 111.665 75.9322L111.832 76.1022ZM103.868 79.4184C103.784 73.5513 102.946 67.8543 100.766 62.4124C99.2574 58.6711 97.3293 55.1849 94.0598 52.5489C90.0358 49.3178 85.5927 49.3178 81.6526 52.5489C79.1376 54.6747 77.2933 57.3956 75.5328 60.1166C75.449 60.2867 75.5328 60.6268 75.5328 60.7968C76.1197 61.8172 76.8742 62.8376 77.461 63.8579C81.1496 69.895 84.6706 75.9322 88.443 81.7992C89.8682 84.01 91.5448 86.1358 93.3053 88.0914C95.8203 90.8124 101.353 90.7274 102.946 85.6256C103.617 83.5849 103.784 81.4591 103.784 79.2483L103.868 79.4184ZM37.3053 79.4184C37.3053 81.4591 37.473 83.4998 38.1436 85.5406C39.9041 90.8974 45.1855 90.8124 48.0358 88.4316C49.964 86.816 51.473 84.8603 52.8143 82.8196C57.0897 76.2723 61.2813 69.725 65.473 63.1777C65.6406 62.9226 65.5568 62.4974 65.473 62.2424C64.97 61.4771 64.3831 60.7118 63.8801 59.9465C62.1197 57.7358 60.3592 55.525 58.0119 53.9094C53.9879 51.1034 49.6287 51.3585 46.1077 54.8447C44.7664 56.1202 43.5927 57.6507 42.6706 59.1813C38.9819 65.3885 37.5568 72.1909 37.3891 79.3334L37.3053 79.4184Z" fill="white"/>
</g>
<defs>
<clipPath id="clip0_3_970">
<rect width="140" height="142" fill="white"/>
</clipPath>
</defs>
</svg>
