<svg width="142" height="142" viewBox="0 0 142 142" fill="none" xmlns="http://www.w3.org/2000/svg">
<g clip-path="url(#clip0_3_964)">
<path d="M142 0H0V142H142V0Z" fill="black"/>
<path d="M89.2814 107.903C85.4551 106.457 81.2036 105.692 77.7174 103.566C61.8168 93.9579 48.8922 81.1184 39.0288 65.4729C31.8012 53.9938 33.5018 44.8956 43.2803 35.9675C46.1713 33.3316 48.4671 33.5016 50.7629 36.4777C53.3138 39.7088 55.7796 42.8549 58.2455 46.086C60.8814 49.5723 60.7114 51.3579 57.6503 54.419C57.6503 54.419 57.4802 54.589 57.3952 54.6741C51.018 60.8813 50.7629 62.4968 56.715 69.0441C61.9868 74.8262 67.6838 80.1831 73.2958 85.625C74.6563 86.9004 76.2719 87.9208 77.8874 88.7711C79.9282 89.8765 81.8838 89.7914 83.6695 88.0908C85.2 86.6453 86.6455 85.1998 88.091 83.6693C90.0467 81.6286 92.3425 81.2884 94.6383 82.904C98.6347 85.8801 102.716 88.7711 106.287 92.0872C107.308 93.0226 107.648 96.2537 106.883 97.2741C102.546 102.886 97.2743 107.308 89.1964 107.903H89.2814Z" fill="white"/>
</g>
<defs>
<clipPath id="clip0_3_964">
<rect width="142" height="142" fill="white"/>
</clipPath>
</defs>
</svg>
