<svg width="142" height="142" viewBox="0 0 142 142" fill="none" xmlns="http://www.w3.org/2000/svg">
<g clip-path="url(#clip0_54_164)">
<path d="M141.54 0H0V141.54H141.54V0Z" fill="black"/>
<path d="M104.707 103.051L78.1491 64.4675L75.1466 60.1039L56.1494 32.504L54.5747 30.2168H31.2305L36.9239 38.4904L62.1837 75.1918L65.1863 79.5508L85.482 109.04L87.0566 111.325H110.401L104.707 103.051V103.051ZM89.8309 106.044L68.7453 75.408L65.7427 71.047L41.2756 35.4979H51.8004L71.5876 64.2473L74.5902 68.6083L100.356 106.044H89.8316H89.8309Z" fill="white"/>
<path d="M65.7433 71.0459L68.7458 75.4069L65.1862 79.5497L37.8746 111.323H31.1396L62.1837 75.1907L65.7433 71.0459Z" fill="white"/>
<path d="M107.59 30.2168L78.1496 64.4675L74.5899 68.6076L71.5874 64.2467L75.1471 60.1039L95.0898 36.8917L100.855 30.2168H107.59Z" fill="white"/>
</g>
<defs>
<clipPath id="clip0_54_164">
<rect width="141.54" height="141.54" fill="white"/>
</clipPath>
</defs>
</svg>
